<svg width="28" height="28" viewBox="0 0 28 28" fill="none" xmlns="http://www.w3.org/2000/svg">
<path fill-rule="evenodd" clip-rule="evenodd" d="M22.1091 22.13L15.8127 16.8504C15.8127 16.8504 14.9597 16.0177 14.003 16.0177C13.0367 16.0177 12.1837 16.8504 12.1837 16.8504L5.8893 22.13L5.86913 22.1117L11.1502 15.8161C11.1502 15.8161 11.9811 14.9661 11.9811 13.9979C11.9811 13.0394 11.1502 12.1885 11.1502 12.1885L5.86913 5.88798L5.8893 5.86589L12.1837 11.1512C12.1837 11.1512 13.0367 11.9858 14.003 11.9858C14.9597 11.9858 15.8127 11.1512 15.8127 11.1512L22.1091 5.86589L22.135 5.89374L16.8434 12.1885C16.8434 12.1885 16.0182 13.0394 16.0182 13.9979C16.0182 14.9661 16.8434 15.8161 16.8434 15.8161L22.135 22.1098L22.1091 22.13ZM25.055 13.9979V13.996C25.055 12.2893 25.1242 10.7593 26.3902 8.07202C26.7562 7.29022 27.5659 6.15114 26.3729 4.82189C25.4037 3.85569 24.3029 4.01416 23.5614 4.44155C23.9879 3.70009 24.1464 2.59463 23.1781 1.62458C21.8497 0.435557 20.7067 1.24329 19.9286 1.61114C17.2381 2.87988 15.7157 2.94999 14.003 2.94999C12.2836 2.94999 10.7593 2.87988 8.07454 1.61114C7.29266 1.24329 6.14481 0.435557 4.82021 1.62458C3.85199 2.59463 4.01528 3.70009 4.44176 4.44155C3.6983 4.01224 2.59559 3.85569 1.62544 4.82189C0.433407 6.15114 1.24699 7.29022 1.60623 8.07202C2.87991 10.7593 2.95003 12.2893 2.95003 13.9979C2.95003 15.7114 2.87991 17.2452 1.60623 19.9306C1.24699 20.7066 0.433407 21.8534 1.62544 23.1817C2.59559 24.145 3.6983 23.9856 4.44176 23.563C4.01528 24.3063 3.85199 25.4089 4.82021 26.3694C6.14481 27.567 7.29266 26.7574 8.07454 26.3895C10.7612 25.1218 12.2836 25.0545 14.003 25.0545C15.7157 25.0545 17.2381 25.1218 19.9277 26.3895C20.7067 26.7574 21.8497 27.567 23.1781 26.3694C24.1464 25.4089 23.984 24.3063 23.5595 23.563C24.3029 23.9856 25.4037 24.1508 26.3729 23.1817C27.5659 21.8534 26.7562 20.7066 26.3902 19.9306C25.1242 17.2413 25.055 15.7114 25.055 13.9979Z" fill="#FF3333"/>
</svg>
